<?xml version="1.0" encoding="UTF-8" standalone="no"?>
<svg
   xmlns:dc="http://purl.org/dc/elements/1.1/"
   xmlns:cc="http://creativecommons.org/ns#"
   xmlns:rdf="http://www.w3.org/1999/02/22-rdf-syntax-ns#"
   xmlns:svg="http://www.w3.org/2000/svg"
   xmlns="http://www.w3.org/2000/svg"
   xmlns:sodipodi="http://sodipodi.sourceforge.net/DTD/sodipodi-0.dtd"
   xmlns:inkscape="http://www.inkscape.org/namespaces/inkscape"
   width="957.58801"
   height="601.80701"
   viewBox="-702 0 957.58801 601.80701"
   version="1.2"
   id="svg98"
   sodipodi:docname="ec2.svg"
   inkscape:version="0.92.5 (2060ec1f9f, 2020-04-08)"><metadata
   id="metadata104">
  <rdf:RDF>
    <cc:Work
       rdf:about="">
      <dc:format>image/svg+xml</dc:format>
      <dc:type
         rdf:resource="http://purl.org/dc/dcmitype/StillImage" />
      <dc:title>Quick sheets</dc:title>
    </cc:Work>
  </rdf:RDF>
</metadata>
<defs
   id="defs102" />
<sodipodi:namedview
   pagecolor="#ffffff"
   bordercolor="#666666"
   borderopacity="1"
   objecttolerance="10"
   gridtolerance="10"
   guidetolerance="10"
   inkscape:pageopacity="0"
   inkscape:pageshadow="2"
   inkscape:window-width="1920"
   inkscape:window-height="1031"
   id="namedview100"
   showgrid="false"
   fit-margin-top="0"
   fit-margin-left="0"
   fit-margin-right="0"
   fit-margin-bottom="0"
   inkscape:zoom="0.25213675"
   inkscape:cx="754.60603"
   inkscape:cy="-366.04563"
   inkscape:window-x="0"
   inkscape:window-y="25"
   inkscape:window-maximized="1"
   inkscape:current-layer="svg98" />
<title
   id="title2">Quick sheets</title>
\n<g
   id="g8"
   transform="translate(-196.282,-206.177)">
  <path
     d="m -154.503,786.854 v 0 l 1.402,-0.837 1.942,-12.475 -0.826,-2.046 -0.015,-6.996 0.148,-3.026 0.695,-0.947 -10e-4,-1.055 -1.679,-2.011 1.674,-6.921 -0.806,-2.04 0.686,-1.812 -0.963,-1.172 1.122,-2.06 -1.727,-9.939 1.674,-2.988 -0.792,-2.029 0.768,-2 -0.652,-0.974 -0.141,-2.406 98.877,-2.629 382.613,-7.475 1.304,0.479 -0.8,1.003 -3.19,2.217 -3.62,3.57 -2.381,1.43 -4.094,4.095 -2.715,3.69 -1.81,1.785 -2.5,1.553 -2.401,4.346 -2.14,2.29 v 2.052 l 1.325,1.325 1.026,0.118 1.482,-0.467 1.04,-1.03 2.689,-4.656 15.816,-15.839 2.663,-1.692 4.62,-4.57 3.321,-1.792 1.691,-2.395 -0.896,-1.662 -2.741,-2.153 -4.369,-2.424 -2.632,-2.577 -9.22,-5.218 -10.279,-4.603 -6.954,-1.677 -3.205,-3.066 -2.023,-0.132 -1.484,0.481 -0.87,0.977 v 2.052 l 1.626,1.723 6.708,2.985 8.65,2.423 15.051,8.055 2.502,2.477 -90.798,2.299 -306.7557,6.036 -54.6393,1.462 -30.021,-0.143 -0.456,-1.347 -0.015,-19.996 0.146,-2.026 0.652,-0.974 -0.652,-0.974 -0.146,-3.026 0.147,-2.024 0.563,-0.771 -1.483,-1.384 1.742,-4.824 -0.822,-1.971 -0.147,-2.026 0.146,-5.026 0.652,-0.974 -0.598,-1 0.598,-1 -0.768,-2 0.768,-2 -0.598,-1 0.598,-1 -0.598,-1 0.628,-1.034 -1.683,-3.977 1.693,-9.948 -0.692,-1.015 -0.146,-2.026 0.146,-4.026 0.652,-0.974 -2.023,-3.002 1.206,-1.958 -0.13,-3.066 -0.651,-0.974 0.598,-1 -0.64,-1.042 1.682,-12.916 -0.825,-2.046 0.131,-2.022 0.652,-0.974 -0.642,-0.973 0.642,-2.027 -0.768,-2 0.807,-2.041 -1.624,-7.79 1.306,-1.643 -0.505,-1.529 v -3.994 l 0.784,-2.003 -0.598,-1 0.598,-1 -0.652,-0.974 -0.132,-4.023 0.853,-3.066 -1.71,-14.895 0.642,-1.042 -0.638,-1.041 1.676,-7.919 -1.637,-2.04 0.598,-1 -0.598,-1.001 1.622,-2.027 -1.646,-2.944 1.541,-1.841 0.141,-2.492 -0.702,-1.668 0.812,-3.027 -0.768,-2 0.598,-1 -0.652,-0.974 -0.146,-2.026 0.014,-6.997 0.784,-2.003 -0.784,-2.004 v -6.993 l 0.783,-2.007 -1.302,0.302 -0.361,-0.944 1.729,-2.346 -1.663,-2.008 1.598,-2 -0.783,-2.004 0.131,-2.022 0.652,-0.974 -0.768,-2 0.686,-1.812 -0.963,-1.172 1.109,-2.011 -0.662,-1.005 0.598,-1 -0.598,-1 0.634,-1.039 -1.682,-5.948 1.67,-2.984 -0.621,-1.027 0.515,-0.813 -0.979,-1.189 0.781,-1.474 -0.504,-1.53 v -3.993 l 0.784,-2.003 -0.784,-2.004 v -4.993 l 0.828,-1.976 -0.642,-2.027 0.632,-1.037 -1.682,-4.959 1.678,-3.97 -0.798,-2.034 0.768,-2.001 -1.632,-2.036 1.611,-4.787 -1.55,-1.356 1.742,-4.823 -0.955,-3.001 v -4.993 l 0.784,-2.003 -0.597,-0.998 0.51,-0.797 -1.233,-1.684 -0.302,-1.55 1.646,-2.942 -0.623,-1.029 0.629,-1.034 -1.683,-3.977 1.711,-9.984 -1.692,-5.967 1.547,-1.835 -1.974,-3.203 0.782,-1.479 0.449,-2.521 -0.768,-2 0.598,-1 -0.598,-1 0.784,-2.003 v -6.994 l -0.784,-2.004 1.622,-2.027 -1.646,-2.944 1.622,-2.027 -0.642,-0.974 v -1.054 l 0.642,-0.973 -0.845,-1.543 -3.427,-1.785 0.272,1.329 -1.097,1.211 -1.555,-1.259 -0.132,4.043 0.784,2.004 -1.598,1.999 0.651,0.975 0.147,2.026 -0.014,3.997 -0.697,1.799 1.232,1.678 -0.363,1.553 0.642,0.973 -0.652,0.974 -0.146,3.026 0.146,2.026 0.652,0.974 -1.598,1.999 0.598,1.001 -0.598,1 0.651,0.974 0.146,2.026 -0.146,2.026 -0.651,0.974 0.768,2 -0.768,2 0.783,2.004 -0.132,2.022 -0.651,0.974 0.597,0.998 -0.51,0.796 1.503,1.369 -1.65,15.83 1.723,5.944 -0.177,1.365 -1.51,2.669 0.622,1.029 -0.598,1 0.783,2.004 -0.132,2.022 -0.651,0.974 0.784,2.003 v 20.993 l -0.784,2.004 0.651,0.974 0.148,3.026 -0.148,3.026 -0.651,0.974 0.642,0.973 -0.642,2.027 0.642,0.973 v 1.054 l -0.672,1.007 1.658,3.932 -1.628,2.033 0.651,0.975 0.133,5.022 -0.954,3.004 0.768,2 -0.598,1 0.783,2.003 -0.132,2.023 -0.687,1.013 1.67,5.922 -0.688,1.013 -0.146,2.026 0.014,6.996 0.784,2.004 -1.598,2 0.651,0.974 0.147,2.026 -0.147,4.026 -0.651,0.974 0.768,2 -0.812,1.973 0.695,2.001 0.133,3.023 -0.697,1.798 1.493,1.377 -1.628,5.815 1.67,2.984 -0.623,1.029 0.639,1.041 -1.678,9.918 0.691,1.015 0.146,2.026 -0.146,2.026 -0.651,0.974 0.598,1 -0.598,1 0.598,1 -0.598,1 0.651,0.974 0.132,2.022 -0.783,2.004 0.651,0.974 0.132,2.022 -0.783,2.004 0.598,1 -0.642,0.973 v 1.054 l 0.686,0.946 v 1.054 l -0.642,0.973 0.598,1 -0.642,0.97 -0.022,1.093 1.723,6.94 -1.697,9.955 0.691,1.016 0.147,2.026 -0.014,6.996 -0.784,2.004 0.784,2.003 v 4.993 l -0.697,1.8 1.232,1.678 -0.363,1.553 0.642,0.973 -0.652,0.974 -0.146,3.026 0.146,2.026 0.652,0.974 -1.598,1.999 0.598,1.001 -0.598,1 0.651,0.974 0.146,2.026 -0.146,2.026 -0.651,0.974 0.768,2 -0.768,2 0.783,2.004 -0.132,2.022 -0.651,0.974 0.597,0.998 -0.51,0.796 1.503,1.369 -1.65,15.83 1.723,5.944 -0.177,1.365 -1.51,2.669 0.622,1.029 -0.598,1 0.783,2.004 -0.132,2.022 -0.651,0.974 0.784,2.003 v 20.993 l -0.784,2.004 0.651,0.974 0.125,3.438 -66.821,2.556 -209.663,4.518 -30.021,-0.143 -0.472,-3.343 0.016,-502.996 0.479,-1.305 3.79,3.611 6.43,9.38 1.574,1.626 2.422,4.368 6.099,6.101 2.636,1.577 1.06,0.124 3.022,-0.143 0.441,-1.343 -0.467,-1.482 -1.277,-1.268 -3.692,-1.722 -1.818,-1.838 -11.43,-16.38 -2.359,-2.944 -5.97,-4.912 -1.943,-3.425 -1.54,-0.372 -1.002,0.666 -2.943,-1.646 -1.816,1.639 -4.031,7.931 -5.36,13.444 -5.644,10.58 -4.499,11.701 2.322,2.327 1.656,-0.887 1.124,-1.72 4.408,-11.413 4.633,-8.588 6.163,-15.123 1.991,-2.909 1.367,0.313 0.142,1.032 -0.004,508.402 -36.021,3.252 -0.677,0.51 3.164,2.194 1.06,0.124 27.99,-10e-4 3.388,-0.975 2.895,38.677 2.207,-6.194 0.02,-31.373 255.501,-6.106 50.019,0.134 1.316,1.324 -0.671,2.062 1.658,3.932 -1.628,2.034 0.651,0.974 0.147,4.026 -0.147,2.026 -0.821,1.974 0.768,2 -0.642,0.973 v 1.054 l 0.812,1.973 -0.804,2.039 1.693,5.967 -1.726,12.931 0.72,2.037 0.147,4.026 -0.147,2.026 -0.651,0.974 0.642,0.972 v 1.055 l -0.813,1.97 1.723,4.728 0.723,0.625 m 1.046,-8.06 v 0 l -0.027,-0.593 m 1.027,-19.407 v 0 l -0.027,-0.593 m 0.983,-9.988 v 0 l 0.027,0.594 m -1.983,-1.013 v 0 l -0.027,-0.593 m 3.027,-3.407 v 0 l -0.027,-0.593 m -1.973,0.593 v 0 l -0.027,-0.593 m 1.027,-13.407 v 0 l -0.027,-0.593 m -1.017,-2.988 v 0 l 0.027,0.593 m -0.296,-10.28 v 0 l 0.594,-0.027 m -2.281,-2.705 v 0 l -0.027,-0.593 m 490.027,-2.407 v 0 l -0.027,-0.593 m -0.974,-0.407 v 0 l -0.026,-0.593 m -485.973,-5.407 v 0 l -0.027,-0.593 m -1.286,-8.675 v 0 l 0.594,-0.027 m 0.987,-22.017 v 0 l -0.593,0.027 m 1.325,-11.715 v 0 l -0.027,-0.593 m -3.286,-2.675 v 0 l 0.594,-0.027 m 1.719,-3.705 v 0 l -0.027,-0.593 m -2.973,0.593 v 0 l -0.027,-0.593 m 3.027,-3.407 v 0 l -0.027,-0.593 m 0.027,-1.407 v 0 l -0.027,-0.593 m -2.973,-2.407 v 0 l -0.027,-0.593 m -0.973,-1.407 v 0 l -0.027,-0.593 m 1.013,-1.373 v 0 l -0.039,-0.656 1.333,0.331 m -1.592,-1.977 v 0 l 0.593,-0.027 m 1.406,-4.973 v 0 l 0.594,-0.027 m -0.281,-5.705 v 0 l -0.027,-0.593 m -2.017,1.012 v 0 l 0.027,0.593 m -1.715,93.676 v 0 l -0.593,0.027 m 3.325,-102.715 v 0 l -0.027,-0.593 m -0.017,-5.988 v 0 l 0.027,0.594 m 0.017,-4.013 v 0 l -0.027,-0.593 m 1.715,-0.675 v 0 l 0.593,-0.027 m -1.281,-0.705 v 0 l -0.027,-0.593 m -1.286,-4.675 v 0 l 0.594,-0.027 m -1.276,-7.705 v 0 l -0.359,-1.31 0.332,-0.282 0.332,1.332 m 0.695,-2.74 v 0 l -0.359,-1.311 0.332,-0.281 0.332,1.332 m -0.042,55.948 v 0 l -0.593,0.027 m 3.325,-63.715 v 0 l -0.027,-0.593 m -4.017,-4.988 v 0 l 0.027,0.594 m -0.983,-14.013 v 0 l -0.027,-0.593 m 4.295,11.281 v 0 l -0.593,0.027 m 0.325,-34.715 v 0 l -0.027,-0.593 m 1.295,-7.719 v 0 l -0.593,0.027 m -0.675,-4.715 v 0 l -0.027,-0.593 m -2.973,-1.407 v 0 l -0.027,-0.593 m 1.027,-2.407 v 0 l -0.027,-0.593 m 2.295,-0.719 v 0 l -0.593,0.027 m -1.719,-8.296 v 0 l 0.027,0.594 m 2.017,-6.013 v 0 l -0.027,-0.593 m -3.705,62.281 v 0 l -0.593,0.027 m 3.593,-67.027 v 0 l -0.593,0.027 m -0.988,-0.983 v 0 l 0.594,-0.027 m 1.987,29.983 v 0 l -0.593,0.027 m 0.281,-39.296 v 0 l 0.027,0.594 m -1.983,-1.013 v 0 l -0.027,-0.593 m 2.714,-3.675 v 0 l 0.594,-0.027 m -4.281,0.295 v 0 l -0.027,-0.593 m -0.017,-9.988 v 0 l 0.027,0.594 m 1.973,-7.593 v 0 l 0.027,0.593 m -0.296,-10.281 v 0 l 0.594,-0.027 m -2.281,-2.705 v 0 l -0.027,-0.593 m 0.027,-5.407 v 0 l -0.027,-0.593 m 3.027,-3.407 v 0 l -0.027,-0.593 m 0.295,26.281 v 0 l -0.593,0.027 m -0.988,-34.983 v 0 l 0.594,-0.027 M 36.5005,417.872 v 0 l 5.6896,-3.587 2.0592,-2.06 1.6162,-3.666 -0.0035,-3.113 -2.5734,-4.63 -3.0636,-3.066 -3.6666,-1.616 -5.1127,0.004 -2.9181,1.839 -1.8209,1.846 -1.0212,1.951 -1.5513,3.667 0.0036,6.113 2.3642,3.448 3.9437,2.86 M -156.21,464.478 v 0 l -0.593,0.027 m 3.593,-48.027 v 0 l -0.593,0.027 m -2.719,-0.296 v 0 l 0.027,0.594 m 4.035,-1.986 v 0 l -1.345,-0.314 1.329,-0.332 m -2.315,16.351 v 0 l 0.594,-0.027 M 35.5745,412.85 v 0 l -4.1008,0.002 -1.517,-0.898 -1.806,-3.458 1.6177,-4.742 2.7053,-2.605 2.052,-10e-4 0.9471,0.695 2.0254,-0.641 3.3531,4.272 v 3.052 l -2.6614,2.759 M -155.21,408.478 v 0 l -0.593,0.027 m -0.675,60.285 v 0 l -0.027,-0.593 m 4.027,-63.407 v 0 l -0.027,-0.593 m -1.705,-0.719 v 0 l -0.593,0.027 m -0.675,-1.715 v 0 l -0.027,-0.593 m 2.295,-3.719 v 0 l -0.593,0.027 m -1.719,15.705 v 0 l 0.027,0.593 m 1.017,-17.013 v 0 l -0.027,-0.593 m 1.295,-2.719 v 0 l -0.593,0.027 m 0.325,-1.715 v 0 l -0.027,-0.593 m -1.973,0.593 v 0 l -0.027,-0.593 m -1.973,-4.407 v 0 l -0.027,-0.593 m 1.013,-1.373 v 0 l -0.039,-0.656 1.333,0.332 m -1.593,-1.978 v 0 l 0.594,-0.027 m -0.013,61.983 v 0 l -0.593,0.027 m 2.593,-34.027 v 0 l -0.593,0.027 m -0.675,-16.715 v 0 l -0.027,-0.593 m 1.027,-15.407 v 0 l -0.027,-0.593 m -2.286,-4.675 v 0 l 0.594,-0.027 m 1.987,14.983 v 0 l -0.593,0.027 m 0.325,-15.715 v 0 l -0.027,-0.593 m -0.705,-7.719 v 0 l -0.593,0.027 m 0.325,-5.715 v 0 l -0.027,-0.593 m 0.027,-3.407 v 0 l -0.027,-0.593 m 2.027,-0.407 v 0 l -0.027,-0.593 m -0.973,-0.407 v 0 l -0.027,-0.593"
     id="path6"
     inkscape:connector-curvature="0"
     style="fill:#000000" />
</g>
<g
   id="g12"
   transform="translate(-196.282,-206.177)">
  <path
     d="M -470,728 31,408"
     id="path10"
     inkscape:connector-curvature="0"
     style="fill:none;stroke:#909090;stroke-width:4;stroke-linecap:round;stroke-linejoin:round" />
</g>
<g
   id="g16"
   transform="translate(-196.282,-206.177)">
  <path
     d="m -302.156,807.544 v 0 l 1.141,-3.048 10e-4,-7.989 -1.886,-10.494 4.34,-1.88 2.693,-0.235 1.705,-2.399 -2.367,-3.32 -6.771,2.591 -0.92,-2.295 -2.65,-11.913 -0.116,-3.056 0.298,-1.308 3.935,-5.97 1.619,-3.669 v -8.118 l -4.578,-9.625 -2.422,-1.89 -2.342,-2.777 -2.046,10e-4 -0.675,0.56 -1.774,12.79 1.957,13.007 -0.135,5.019 -3.661,3.759 -6.11,3.669 -0.055,0.485 0.472,1.541 0.977,0.871 2.08,0.011 7.735,-4.615 2.581,9.191 0.114,4.12 -6.174,4.157 -2.108,2.115 -2.57,6.609 0.006,5.115 2.573,4.63 4.061,3.063 3.669,1.619 6.055,0.118 m -2.949,-4.155 v 0 l -1.322,-0.116 -3.45,-1.464 -1.908,-1.323 -1.729,-2.372 v -7.108 l 1.696,-2.754 3.636,-2.541 1.511,-0.093 2.889,13.38 -0.019,3.088 m -2.86,-46.723 v 0 l -1.977,-7.31 0.002,-8.989 0.476,-1.303 0.754,0.574 2,3.996 1.74,4.735 -0.12,3.053 -1.619,3.669 M 236.796,551.695 v 0 l 4.386,-2.405 1.669,-1.764 v -7.052 l -3.325,-3.325 -4.08,-0.011 -5.67,2.612 -2.638,3.696 0.01,5.08 1.627,1.723 3.666,1.617 m 4.109,-5.028 v 0 l -4.076,0.013 -1.272,-1.349 4.272,-3.353 h 2.052 l 1.316,1.324 v 1.054"
     id="path14"
     inkscape:connector-curvature="0"
     style="fill:#000000" />
</g>
<g
   id="g20"
   transform="translate(-196.282,-206.177)">
  <path
     d="m -463.347,724.176 -1.837,-0.109 -0.496,0.265 0.093,-0.262 -0.78,-0.122 -0.09,0.913 -0.025,-0.334 -0.435,0.099 -0.142,-0.246 -1.173,1.008"
     id="path18"
     inkscape:connector-curvature="0"
     style="fill:none;stroke:#909090;stroke-width:4;stroke-linecap:round;stroke-linejoin:round" />
</g>
<g
   id="g24"
   transform="translate(-196.282,-206.177)">
  <path
     d="M -471,727 226,550"
     id="path22"
     inkscape:connector-curvature="0"
     style="fill:none;stroke:#909090;stroke-width:4;stroke-linecap:round;stroke-linejoin:round" />
</g>
<g
   id="g28"
   transform="translate(-196.282,-206.177)">
  <path
     d="M 33,419 V 712"
     id="path26"
     inkscape:connector-curvature="0"
     style="fill:none;stroke:#909090;stroke-width:2;stroke-linecap:round;stroke-linejoin:round" />
</g>
<g
   id="g32"
   transform="translate(-196.282,-206.177)">
  <path
     d="M 236,546 V 709"
     id="path30"
     inkscape:connector-curvature="0"
     style="fill:none;stroke:#909090;stroke-width:2;stroke-linecap:round;stroke-linejoin:round" />
</g>
<g
   id="g36"
   transform="translate(-196.282,-206.177)">
  <path
     d="m -222.488,505.075 -0.391,-10e-4 0.033,0.392 1.279,0.089 0.324,0.424 0.418,-0.007 3.267,2.678 1.997,1.984 0.727,1.196 1.686,1.225 0.593,-0.107 1.398,2.377 1.409,0.972 0.207,-0.24 1.034,1.061 -0.294,0.309 -0.348,-0.872 -0.068,0.526 -0.334,-0.867 -0.263,0.355"
     id="path34"
     inkscape:connector-curvature="0"
     style="fill:none;stroke:#909090;stroke-width:4;stroke-linecap:round;stroke-linejoin:round" />
</g>
<g
   id="g40"
   transform="translate(-196.282,-206.177)">
  <path
     d="m -209.089,507.711 -0.075,-2.22 -0.106,0.371 0.36,-0.147 -0.209,0.129 0.191,0.162 -0.25,-0.187 0.056,0.911 -0.627,-0.687 0.171,0.246 -0.678,0.97 -1.458,0.581 -2.248,2.064 -2.334,2.375 -6.036,8.42 -0.397,-0.206 -0.02,1.793 0.008,-1.046 1.287,-0.987 1.689,0.574 2.85,-0.069"
     id="path38"
     inkscape:connector-curvature="0"
     style="fill:none;stroke:#909090;stroke-width:4;stroke-linecap:round;stroke-linejoin:round" />
</g>
<g
   id="g44"
   transform="translate(-196.282,-206.177)">
  <path
     d="m -197.456,518.646 -1.637,-0.08 0.115,0.314 0.671,-0.119 1.579,-1.553 2.131,-2.603 0.218,-1.14 1.019,-0.612 0.546,0.217 1.289,-1.465 0.266,-0.99 0.456,-0.163 0.168,0.227 0.495,-0.593 -0.376,0.002 0.017,-0.277 -0.091,0.247 -0.113,-0.484 0.31,1.065 0.14,-0.512 -0.242,0.413 -0.176,-0.26 0.218,0.479 -0.266,-0.246 -0.163,1.439 0.471,2.166 -0.039,2.16 -0.392,0.757 -0.041,4.705 -0.493,2.652 0.193,0.668 0.129,-0.869 -0.03,1.108 0.123,-1.593 0.31,0.788 -0.268,-0.343 0.446,-0.548 1.07,-0.16"
     id="path42"
     inkscape:connector-curvature="0"
     style="fill:none;stroke:#909090;stroke-width:4;stroke-linecap:round;stroke-linejoin:round" />
</g>
<g
   id="g48"
   transform="translate(-196.282,-206.177)">
  <path
     d="m -203.464,626.311 -1.991,-1.602 -0.22,-0.444 0.372,-0.075 0.265,0.943 0.248,-0.391 -0.127,-0.625 0.249,0.08 0.618,1.373 0.183,-0.205 1.86,0.547 5.055,4.414 2.857,3.448 0.714,1.766 0.246,-0.149 0.752,0.626 0.225,0.697 -0.429,0.478 0.27,0.584 -0.241,-0.441"
     id="path46"
     inkscape:connector-curvature="0"
     style="fill:none;stroke:#909090;stroke-width:4;stroke-linecap:round;stroke-linejoin:round" />
</g>
<g
   id="g52"
   transform="translate(-196.282,-206.177)">
  <path
     d="m -191.507,626.509 -0.265,-1.871 -0.464,-0.087 -3.199,4.284 -2.027,2.232 -1.23,0.583 -3.917,5.274 -2.384,1.816 -1.01,1.34 0.087,0.832 0.168,-0.698 0.395,-0.243 0.201,0.875 1.08,0.785 1.328,0.147"
     id="path50"
     inkscape:connector-curvature="0"
     style="fill:none;stroke:#909090;stroke-width:4;stroke-linecap:round;stroke-linejoin:round" />
</g>
<g
   id="g56"
   transform="translate(-196.282,-206.177)">
  <path
     d="m -185.163,632.9 -0.254,-0.928 0.178,0.247 0.157,-1.584 0.311,0.116 0.584,-2.349 0.126,0.4 0.861,-0.212 0.286,0.233 0.77,-0.491 0.343,-0.937 1.253,0.462 0.817,0.906 0.431,1.806 -0.824,3.35 -0.369,0.016 -0.947,0.983 -0.817,-0.34 -1.608,2.201 -0.282,0.91 -1.131,0.855 0.009,0.809 0.201,-0.231 0.458,0.696 0.862,0.238 4.948,0.263 0.885,0.355 2.104,-0.287 0.838,-0.458 1.731,0.109 0.908,-0.67 1.479,0.451 0.36,0.811 0.328,-0.484 -0.222,-0.379 -0.095,0.651 -0.461,-0.356 -0.161,0.44 -0.49,-0.382 -0.127,0.704 -0.188,-0.395 -0.516,0.092"
     id="path54"
     inkscape:connector-curvature="0"
     style="fill:none;stroke:#909090;stroke-width:4;stroke-linecap:round;stroke-linejoin:round" />
</g>
<g
   id="g60"
   transform="translate(-196.282,-206.177)">
  <path
     d="m 437.79,567.679 v 0 l 2.521,-1.517 1.203,-2.227 5.811,-13.707 2.195,-6.318 2.35,-9.348 -0.002,-11.123 -3.546,-10.67 -2.036,-3.955 -4.001,-6.004 -4.57,-4.62 -1.692,-2.662 -1.833,-1.813 -6.38,-4.43 -2.62,-2.57 -3.319,-1.58 -1.727,2.31 0.015,1.082 5.651,4.758 2.38,1.43 9.095,9.095 6.006,9.011 3.575,8.62 0.002,16.12 -3.544,10.668 -7.186,16.217 0.011,2.08 M 276.83,561.55 v 0 l 0.021,-3.074 -5.139,-4.292 -4.052,-8.002 -1.754,-6.633 -1.892,-15.056 0.116,-7.055 1.692,-7.148 3.89,-8.474 3.098,-3.101 3.04,-2.191 10e-4,-2.05 -1.385,-1.303 -5.772,2.663 -2.982,3.982 -3.048,5.987 -2.65,8.703 v 18.987 l 2.61,11.678 1.868,4.798 3.22,6.215 5.762,5.667 2.022,0.132 m 70.474,-4.457 v 0 l 1.175,-0.603 2.169,-3.669 3.531,-9.743 -1.715,-2.404 -1.285,0.011 -1.115,1.663 -4.48,10.443 -1.1,1.247 -0.046,1.662 2.374,1.692 m -22.745,-1.077 v 0 l 8.4,-1.849 1.689,-2.371 -2.295,-2.37 -2,0.684 -1.35,-0.363 2.685,-4.925 0.123,-4.051 -0.508,-1.511 -2.923,-1.854 -4.08,0.011 -1.325,1.325 10e-4,2.049 0.608,0.709 3.99,1.499 -2.459,4.453 -3.574,3.626 -1.537,2.66 3.265,2.386 m 101.326,-2.136 v 0 l 3.702,-1.705 0.497,-1.515 -0.44,-1.343 -5.025,-0.142 -1.976,0.827 -1.328,-0.337 2.086,-2.315 3.577,-5.636 -0.011,-3.077 -0.626,-0.724 -3.664,-1.613 -1.123,-0.003 -6.607,2.567 -0.682,0.772 -0.118,1.024 0.441,1.343 3.054,0.009 1.978,-0.836 2.296,0.479 -5.085,5.315 -1.577,2.636 0.011,2.08 2.325,2.325 m -30.737,-5.105 v 0 l 7.2,-1.848 17.336,-2.69 0.577,-0.686 -0.008,-2.05 -1.346,-0.456 -8.989,-0.002 -8.945,1.856 -2.084,-0.033 -0.301,-0.359 4.11,-6.292 4.425,-8.37 2.974,-3.976 5.491,-2.547 1.665,-1.766 -0.34,-1.508 -2.325,-2.547 4.536,-7.657 5.149,-7.261 -0.011,-3.077 -0.592,-0.696 -5.698,-1.65 -2.119,0.004 -2.854,1.054 -5.509,1.031 -20.021,2.643 -10.992,3.13 0.036,2.14 2.409,1.712 8.325,-2.257 14.601,-2.459 7.059,-0.113 1.305,0.479 -10.573,15.757 -9.073,2.553 0.862,2.168 4.676,1.802 -1.978,2.035 -9.43,14.38 -2.137,2.284 -0.132,4.022 0.456,1.347 3.054,0.009 1.978,-0.836 2.022,0.131 0.974,0.652 1,-0.598 0.974,0.651 m -67.514,-3.329 v 0 l 2.23,-3.099 1.673,-4.862 -0.007,-1.118 -1.548,-2.61 -2.498,-1.549 -4.099,-4.101 -2.422,-4.368 -4.14,-5.29 -0.118,-1.026 0.466,-1.482 4.792,-5.834 2.534,-4.656 -1.848,-2.028 h -0.95 l -2.31,2.31 -6,7.894 -4.004,-4.52 -4.688,-7.656 -2.497,-2.379 h -3.052 l -5.759,5.661 -1.538,2.662 8.108,9.338 4.577,7.636 -0.011,2.08 -3.138,4.289 -2.575,4.631 0.019,3.082 2.986,0.364 3.57,-6.078 2.789,-3.612 1.783,1.608 1.692,2.662 9.038,9.028 1.119,0.574 1.858,2.403 1.512,0.507 m 69.043,-2.147 v 0 l -2.038,0.145 -1.31,-0.477 12.516,-18.695 1.757,-1.652 1.057,0.007 0.313,1.363 -1.13,1.288 -4.425,8.37 m -74.742,5.637 v 0 l -1.521,-0.316 -3.214,-2.222 -5.095,-5.095 -1.692,-2.662 -2.308,-2.338 -1.538,-2.662 1.84,-2.028 1.114,-0.365 3.158,3.681 4.426,7.374 2.095,2.095 2.667,1.707 0.492,1.507 m -18.452,-17.711 v 0 l -8.802,-11.598 -1.538,-2.662 2.331,-2.392 1.952,1.854 3.255,5.2 5.108,6.338 m 98.722,1.301 v 0 l -1.381,-0.297 -0.006,-1.06 10.559,-15.662 0.758,-0.651 1.05,0.011 -0.024,0.803 -2.788,3.842 -6.425,11.369 M 88.8297,402.55 v 0 l 0.0218,-4.076 -1.1011,-1.249 -6.0861,-12.027 -2.6503,-8.704 0.1165,-17.056 2.5147,-9.586 3.0452,-6.015 2.2055,-1.704 -0.3932,-2.113 -0.9766,-0.871 -1.0261,-0.118 -1.4818,0.467 -2.3065,2.318 -3.0426,5.978 -1.06,3.087 -2.4795,12.557 -0.1157,10.055 2.4629,10.384 4.0173,9.088 5.2229,9.225 0.7593,0.66 m 126.3157,-5.177 v 0 l 2.191,-2.126 0.002,-11.043 -1.004,-2.007 -1.481,-0.466 -1.508,0.492 -1.707,2.667 -3.418,2.884 -1.705,2.426 1.705,2.396 1.661,-0.047 1.705,-1.544 2.472,5.865 m -72.746,-1.647 v 0 l 0.893,-0.992 0.133,-1.035 -0.119,-6.055 -1.619,-3.666 -0.723,-0.616 h -1.049 l -3.76,4.651 -1.553,2.689 1.705,2.397 1.658,-0.047 0.708,-0.544 1.758,3.628 m 87.968,-1.41 v 0 l 1.329,-1.338 2.03,-3.931 4.018,-9.056 2.532,-7.637 0.001,-9.123 -3.536,-12.639 -4.045,-7.983 -1.362,-1.95 -4.736,-4.151 -3.664,-2.567 -2.659,-0.045 -1.689,2.369 0.324,0.505 2.314,2.312 4.368,2.422 2.838,2.817 3.485,6.501 1.748,4.491 2.614,10.918 v 3.123 l -2.524,8.61 -6.211,13.27 0.363,2.54 0.975,0.861 m -70.498,-0.311 v 0 l 1.162,-0.602 1.686,-2.401 -0.621,-1.029 1.049,-1.274 1.615,-3.666 -0.014,-2.085 -1.324,-1.316 -1.813,0.659 -3.426,6.367 -1.139,1.29 v 3.052 l 1.323,1.316 m 27.296,-3.119 v 0 l 9.375,-2.88 15.583,-2.878 1.146,-0.77 -0.029,-2.723 -1.347,-0.456 -3.022,0.131 -0.974,0.652 -0.974,-0.651 -2.088,-0.017 -6.875,1.734 -1.398,-0.336 0.331,-1.508 7.219,-11.211 1.517,-1.564 1.758,-4.735 3.872,-6.957 -0.01,-2.08 -0.94,-1.631 -4.881,-2.741 -2.477,-1.964 -8.116,-0.007 -18.25,3.943 -1.056,0.723 0.018,1.731 1.324,1.323 1.023,0.119 11.637,-1.862 3.305,-0.975 4.057,-0.117 1.338,0.454 -0.147,1.332 -5.402,8.388 -2.039,2.042 -4.714,1.751 -0.373,0.493 0.363,1.531 2.237,1.684 -5.263,8.342 -3.362,7.408 0.015,3.085 1.35,1.273 0.974,-0.642 3.031,0.827 m -54.716,-2.303 v 0 l 3.987,-2.931 4.076,-2.227 0.011,-3.077 -8.718,-13.89 0.169,-1.358 1.404,-2.39 3.998,-5.998 3.127,-3.283 v -1.054 l -1.316,-1.324 h -2.052 l -3.759,3.661 -1.692,2.662 -2.313,2.237 -6.402,-10.875 -3.782,-2.685 -2.08,-0.011 -5.636,3.577 -3.6521,3.758 0.338,1.506 2.2192,3.211 2.5699,2.62 4.002,6.004 3.569,6.63 -0.169,1.358 -4.559,7.672 0.008,0.655 2.336,1.693 2.813,-2.632 1.999,-2.894 6.244,7.727 m 57.983,-1.19 v 0 l -0.182,-0.637 2.163,-4.159 6.221,-10.22 0.763,-0.668 4.046,0.014 0.151,0.637 -2.386,4.385 -5.138,7.286 -0.249,1.662 -2.346,1.729 m -57.838,-2.154 v 0 l -3.001,-3.518 -3.538,-5.662 2.692,-3.394 1.417,0.683 3.426,6.367 2.087,2.316 M 113.19,369.799 v 0 l -1.648,-1.804 -2.254,-4.179 -1.573,-1.626 -4.514,-6.69 3.272,-3.342 1.508,0.34 2.307,2.318 5.568,10.629 -0.352,1.534 m 77.043,-1.142 v 0 l -3.075,0.005 -0.314,-1.37 5.344,-7.472 0.972,-0.851 2.054,0.009 0.323,2.368"
     id="path58"
     inkscape:connector-curvature="0"
     style="fill:#000000" />
</g>
<g
   id="g64"
   transform="translate(-196.282,-206.177)">
  <path
     d="m 16.028,739.554 -0.7993,-0.191 0.3993,0.061 0.0116,-0.447 0.0813,0.549 0.4453,-0.428 2.6199,-0.567 10.0591,-1.771 7.413,-0.327 1.104,-0.402 5.0881,0.52 0.6625,0.327 1.7429,-0.429 0.6538,0.058 0.175,0.4 0.3646,-0.475 0.0888,0.438 -0.1034,-0.638 -0.077,0.546 -0.0012,-0.527 0.1526,0.45 0.0266,-0.335 0.2132,0.295 1.1401,-0.09 -0.3328,0.658 0.0676,-0.523 0.0351,0.298 -0.1591,-0.151 -1.5124,1.197 -1.5791,2.101 -2.1969,1.897 -2.2116,2.589 -11.3155,11.208 -2.2633,2.367 -1.1068,1.719 -0.5176,0.162 -2.5057,2.348 -3.9078,4.971 -2.7534,2.63 -0.6049,0.987 0.1449,0.318 0.1243,-0.607 -0.1141,0.844 -0.0533,-0.856 -0.1194,0.487 0.0698,-0.412 -0.2823,0.446 -2.7018,1.195 -0.5746,0.8 -0.0985,-0.332 0.2863,0.181 -0.0356,0.798 -0.1618,-0.289 -0.3636,0.829 -0.75131,0.373 -0.30536,0.909 -0.0657,-0.482 0.81467,0.662 1.6885,-0.067 0.4752,0.583 1.8585,-0.572 0.9799,-0.646 12.9013,0.401 7.5823,0.759 1.2102,0.37 10.4635,-0.792 0.0365,-0.329 -0.7333,0.641 -0.3716,0.013 -0.2367,-0.426 -1.9203,0.851 -2.2125,0.413"
     id="path62"
     inkscape:connector-curvature="0"
     style="fill:none;stroke:#909090;stroke-width:4;stroke-linecap:round;stroke-linejoin:round" />
</g>
<g
   id="g68"
   transform="translate(-196.282,-206.177)">
  <path
     d="m 42.708,737.375 -0.9257,-0.419 -0.899,0.073 0.7078,0.132 1.0851,0.917 3.5602,0.031 3.8577,0.921 0.908,1.206 -0.3559,1.654 -3.2198,5.234 -2.2385,2.669 -2.4614,4.185 -10.0574,14.333 -1.0468,2.352 -2.0483,2.526 -1.7298,3.806 -0.1569,1.506 0.0062,-0.488 -0.1017,0.451 -0.6642,-1.054"
     id="path66"
     inkscape:connector-curvature="0"
     style="fill:none;stroke:#909090;stroke-width:4;stroke-linecap:round;stroke-linejoin:round" />
</g>
<g
   id="g72"
   transform="translate(-196.282,-206.177)">
  <path
     d="m 21.9588,753.447 -0.9618,-0.526 5.1156,0.097 7.6171,-0.903 1.2128,0.499 4.0848,-1.261 2.3491,-0.126 1.273,0.315 6.559,-1.044 0.7409,0.371 -0.9925,0.308 0.2022,-0.425 -0.3381,0.058 -0.7713,0.859"
     id="path70"
     inkscape:connector-curvature="0"
     style="fill:none;stroke:#909090;stroke-width:4;stroke-linecap:round;stroke-linejoin:round" />
</g>
<g
   id="g76"
   transform="translate(-196.282,-206.177)">
  <path
     d="m 50.7056,781.622 -0.3591,-0.279 0.4006,-0.025 2.0497,-2.668 1.337,-0.816 2.9451,-2.898 2.1195,-1.606 0.6666,-1.201 -0.6568,0.49 -0.2006,0.575 0.5458,8.778 0.6203,4.128 0.1471,-0.43 -0.0545,0.49 -0.3005,-0.901 0.1859,-0.131"
     id="path74"
     inkscape:connector-curvature="0"
     style="fill:none;stroke:#909090;stroke-width:4;stroke-linecap:round;stroke-linejoin:round" />
</g>
<g
   id="g80"
   transform="translate(-196.282,-206.177)">
  <path
     d="m 222.517,730.039 -1.355,-1.077 0.019,0.261 0.117,-0.507 0.479,0.425 3.366,-0.243 1.276,0.224 3.693,-0.485 1.595,-0.544 4.908,0.026 5.579,-0.692 3.786,-0.12 5.457,0.235 0.806,-0.279 -0.164,0.488 -0.274,-0.139 0.112,-0.65 0.085,0.586 -2.781,2.309 -0.28,-0.1 -1.203,1.595 -1.349,0.59 -2.952,4.017 -4.375,4.597 -4.009,4.834 -2.156,2.05 -3.853,5.408 -2.93,3.484 -1.135,0.715 -8.519,10.518 0.196,0.159 -0.016,-0.676 0.2,0.643 7.812,-0.949 15.57,-1.059 1.71,0.36 6.307,-0.433 0.707,0.117 0.101,0.306 -2.501,-0.01 -0.96,-0.866"
     id="path78"
     inkscape:connector-curvature="0"
     style="fill:none;stroke:#909090;stroke-width:4;stroke-linecap:round;stroke-linejoin:round" />
</g>
<g
   id="g84"
   transform="translate(-196.282,-206.177)">
  <path
     d="m 242.223,730.084 2.665,-0.128 1.647,-0.652 6.465,-0.085 1.227,0.902 -0.013,1.555 -0.483,1.29 -2.131,3.106 -2.809,2.923 -5.214,7.795 -1.029,1.098 -5.724,9.798 -3.207,8.018 -0.78,0.943 -0.148,0.716 -0.194,-0.511"
     id="path82"
     inkscape:connector-curvature="0"
     style="fill:none;stroke:#909090;stroke-width:4;stroke-linecap:round;stroke-linejoin:round" />
</g>
<g
   id="g88"
   transform="translate(-196.282,-206.177)">
  <path
     d="m 223.855,747.177 0.156,0.696 3.716,0.059 8.462,-0.991 3.873,-0.942 1.58,-0.688 4.991,-0.709 2.188,-0.629 0.983,-0.742 2.738,0.089 1.482,-0.376 -1.458,0.383 -1.164,1.668"
     id="path86"
     inkscape:connector-curvature="0"
     style="fill:none;stroke:#909090;stroke-width:4;stroke-linecap:round;stroke-linejoin:round" />
</g>
<g
   id="g92"
   transform="translate(-196.282,-206.177)">
  <path
     d="m 257.176,769 -0.498,-0.019 0.011,0.284 0.379,-0.391 0.082,-1.19 0.176,0.403 0.735,-0.698 4.047,-0.814 2.807,-0.05 2.57,0.428 0.483,0.797 -0.119,0.746 -1.982,3.029 -8.658,7.026 -1.101,1.249 -0.559,1.215 -0.024,0.357 0.1,-0.22 0.71,1.057 1.928,0.71 0.582,-0.217 2.371,1.206 4.004,-0.239 -0.766,-0.153 -0.022,-0.313 -0.163,0.578 -0.734,-1.256"
     id="path90"
     inkscape:connector-curvature="0"
     style="fill:none;stroke:#909090;stroke-width:4;stroke-linecap:round;stroke-linejoin:round" />
</g>
<g
   id="g96"
   transform="translate(-196.282,-206.177)">
  <path
     d="m 375.731,739.751 v 0 l 22.775,-3.737 7.048,0.124 2.892,1.724 1.06,0.123 h 5.99 l 1.976,-0.828 3.055,0.685 0.976,-0.862 0.348,-2.506 -1.325,-1.326 h -4.052 l -1.974,0.821 -2.203,-1.164 -16.039,-1.564 9.457,-14.431 6,-8 2.759,-2.662 21.022,-0.133 2.032,0.807 2.367,-1.69 -0.046,-1.658 -1.708,-1.333 -20.087,-2.256 9.661,-14.075 5.136,-5.284 -10e-4,-2.048 -0.566,-0.679 -9.722,-1.67 -5.055,-0.115 -32.101,2.123 -4.884,1.857 -0.418,2.138 2.368,1.69 1.001,-0.665 2.028,0.64 0.495,-0.73 7.463,-1.905 2.041,0.807 3.003,-0.954 h 9.993 l 1.976,0.827 3.031,-0.826 2.297,0.479 -12.085,12.315 -1.692,2.662 -5.89,6.426 -2.659,-0.046 -1.978,-0.837 h -8.993 l -1.484,0.482 -0.861,0.975 0.339,1.509 1.217,1.221 9.975,1.595 -4.974,5.013 -1.692,2.662 -3.308,3.338 -5.43,7.38 -3.57,3.62 -4.566,6.664 v 2.052 l 1.325,1.325 m 10.106,-4.994 v 0 l -3.077,0.127 -1.304,-0.479 6.516,-8.695 3.57,-3.62 1.43,-2.38 4.57,-4.62 1.692,-2.662 4.755,-4.743 6.706,-1.655 3.084,0.033 0.153,0.631 -1.391,2.396 -7.573,9.626 -2.422,4.368 -5.14,6.29 v 2.049 l 0.545,0.708 -4.157,1.601 -1.008,-0.675 -1.091,-0.021 m 24.101,-31.153 v 0 l -5.067,-0.141 -0.314,-1.37 0.339,-0.453 6.788,-6.829 1.692,-2.662 9.041,-9.031 1.485,-0.481 2.021,0.146 -0.025,0.813 -4.784,5.835 -7.43,11.38 -2.764,2.665 M -139.035,405.514 v 0 l 8.51,-12.355 1.506,0.339 5.492,5.344 1.507,-0.339 0.871,-0.977 0.011,-2.08 -1.577,-2.636 -4.126,-3.285 0.339,-1.506 3.353,-3.493 v -2.052 l -1.322,-1.316 -1.331,0.155 -2.388,1.402 -2.501,3.044 -3.783,-2.61 h -2.052 l -1.316,1.323 0.34,1.509 3.344,3.492 v 1.055 l -4.131,5.288 -3.562,5.658 v 3.052 l 1.323,1.316 m -27.681,-31.318 v 0 l -0.499,-0.772 3.174,-1.581 1.038,0.628 0.294,-0.295 -0.597,-1.005 1.597,-1.997 -0.508,-0.791 4.017,-3.545 1.515,-2.636 -0.53,-0.814 3.507,-3.215 -0.599,-1.007 0.275,-0.324 1.532,0.352 1.711,2.182 0.564,-0.408 1.539,2.174 -0.532,0.819 1.765,1.881 3.655,2.542 -0.38,1.085 3.381,3.913 0.765,-0.552 1.052,-0.001 0.971,0.641 2.218,-2.506 0.787,0.503 0.329,-0.325 -2.548,-7.656 -3.782,-2.812 -2.195,-3.169 -2.015,-1.549 0.505,-0.79 -1.046,0.205 -1.591,-3.013 -2.635,-1.683 0.316,-2.528 -3.287,-2.337 -4.051,-0.123 -1.736,0.743 -1.765,3.745 -2.801,3.996 0.597,1.004 -0.841,0.54 -1.929,3.424 -2.313,2.343 -3.962,5.962 -1.582,3.694 0.681,1.005 0.252,1.688 1.607,1.551 -0.508,0.796 1.297,-0.305 2,0.767 m -0.978,-3.178 v 0 l -0.027,-0.593 m 0.027,-1.407 v 0 l -0.027,-0.593 m 0.027,-3.407 v 0 l -0.027,-0.593 m 25.027,-5.407 v 0 l -0.027,-0.593 m -10.973,-0.407 v 0 l -0.027,-0.593 m 8.027,-1.407 v 0 l -0.027,-0.593 m -1.973,0.593 v 0 l -0.027,-0.593 m -0.973,-1.407 v 0 l -0.027,-0.593 m -2.973,-2.407 v 0 l -0.027,-0.593 m -0.973,-4.407 v 0 l -0.027,-0.593 m -252.54,-26.679 v 0 l 3.33,-3.328 4.577,-6.636 0.036,-3.687 -10.088,-7.582 -6.312,-6.304 -0.354,-1.536 3.571,-5.635 6.095,-6.095 2.662,-1.692 2.03,-2.041 0.34,-2.51 -1.346,-0.455 -2.022,0.132 -8.664,6.566 -4.098,5.101 -2.421,3.893 -1.576,-1.519 -4.43,-6.38 -3.3,-3.311 -1.119,-0.573 -2.339,-2.767 -4.755,1.594 -6.934,3.937 -1.676,2.81 1.553,2.69 3.786,3.825 0.573,1.119 10.791,8.737 -1.582,3.321 -3.572,4.624 -3.785,6.318 -2.233,1.7 -1.516,2.638 0.325,0.505 1.97,1.872 1.661,0.047 4.155,-4.712 3.424,-6.368 3.003,-4.006 1.794,-1.675 h 0.622 l 7.369,7.88 0.574,1.119 3.211,2.676 3.243,4.213 2.948,1.802 m -0.76,-6.117 v 0 l -9.001,-9.518 -1.692,-2.662 -2.865,-2.999 0.155,-1.331 2.189,-2.996 9.308,9.083 2.661,1.691 2.385,3.468 -0.169,1.358 -1.402,2.388 m -18.74,-18.361 v 0 l -1.521,-0.322 -6.214,-4.222 -6.31,-6.302 -0.36,-1.125 4.306,-2.72 h 2.108 l 2.612,1.554 4.549,6.498 3.127,3.283 -0.34,1.508"
     id="path94"
     inkscape:connector-curvature="0"
     style="fill:#000000" />
</g>
</svg>
